<?xml version="1.0" standalone="no"?>
<!DOCTYPE svg PUBLIC "-//W3C//DTD SVG 20010904//EN"
 "http://www.w3.org/TR/2001/REC-SVG-20010904/DTD/svg10.dtd">
<svg version="1.0" xmlns="http://www.w3.org/2000/svg"
 width="210.000000pt" height="210.000000pt" viewBox="0 0 210.000000 210.000000"
 preserveAspectRatio="xMidYMid meet">
<metadata>
Created by potrace 1.11, written by Peter Selinger 2001-2013
</metadata>
<g transform="translate(0.000000,210.000000) scale(0.100000,-0.100000)"
fill="#000000" stroke="none">
<path d="M0 1050 l0 -1050 1050 0 1050 0 0 1050 0 1050 -1050 0 -1050 0 0
-1050z m1495 786 c231 -136 430 -259 443 -272 l22 -25 -1 -497 c0 -273 -4
-505 -8 -516 -10 -25 -879 -518 -906 -513 -12 2 -217 120 -457 262 -309 183
-438 264 -442 279 -8 31 -6 998 3 1020 10 25 879 518 906 513 12 -2 210 -115
440 -251z"/>
<path d="M650 1746 l-395 -224 0 -462 0 -463 398 -234 398 -235 397 225 397
225 0 462 0 463 -395 233 c-217 128 -397 233 -400 234 -3 0 -183 -101 -400
-224z m461 -300 c83 -18 138 -46 195 -98 147 -136 147 -430 0 -566 -99 -91
-183 -112 -454 -112 l-193 0 3 28 c3 25 7 27 51 30 l47 3 0 334 0 334 -47 3
c-44 3 -48 5 -51 31 l-3 27 193 0 c127 0 216 -5 259 -14z"/>
<path d="M870 1065 l0 -335 88 0 c49 0 111 7 139 15 66 20 134 80 164 147 21
46 24 68 24 173 0 105 -3 127 -24 173 -50 110 -147 162 -302 162 l-89 0 0
-335z"/>
</g>
</svg>
